<?xml version="1.0" encoding="UTF-8"?>
<svg version="1.1" xmlns="http://www.w3.org/2000/svg" width="1000" height="1000">
<path d="M0 0 C330 0 660 0 1000 0 C1000 330 1000 660 1000 1000 C670 1000 340 1000 0 1000 C0 670 0 340 0 0 Z " fill="#555555" transform="translate(0,0)"/>
<path d="M0 0 C14.16515573 -0.89534999 28.32584669 -1.5586465 42.51365566 -1.96886253 C49.10666086 -2.16598973 55.68049955 -2.43199051 62.26245117 -2.86669922 C105.91953806 -5.67411195 105.91953806 -5.67411195 116.71011353 3.50195312 C124.99335854 11.94889982 130.09436601 22.68530692 134.86056519 33.37640381 C137.54073447 39.34192086 141.03026798 44.52060932 144.80078125 49.859375 C145.90134833 51.51806061 146.99591547 53.18074536 148.08398438 54.84765625 C159.24852929 71.8024289 170.46328922 88.72229826 181.73892212 105.60339355 C191.32386451 119.95518254 200.83720247 134.35287619 210.32275391 148.77050781 C219.74127641 163.08383469 229.22020279 177.3554972 238.73873901 191.60247803 C247.73702496 205.07283364 256.66473915 218.58807497 265.5625 232.125 C279.19862429 252.86969829 293.05849002 273.45958733 307 294 C309.97883586 290.30880848 312.76685309 286.54292706 315.4375 282.625 C315.89576172 281.9556543 316.35402344 281.28630859 316.82617188 280.59667969 C324.22980968 269.7626585 331.57058899 258.88553158 338.92530823 248.01828003 C343.05877005 241.91148971 347.19867931 235.80909008 351.34051514 229.70797729 C361.01768718 215.45303473 370.68124887 201.18889063 380.34277344 186.92333984 C385.16455144 179.80392865 389.98733517 172.68519869 394.80993652 165.56634521 C396.12069316 163.631474 397.43144303 161.6965982 398.7421875 159.76171875 C399.17490967 159.122948 399.60763184 158.48417725 400.0534668 157.8260498 C402.69880509 153.92101489 405.34390636 150.01581954 407.98883057 146.11050415 C417.20989052 132.49533332 426.4345673 118.88264432 435.66955566 105.2769165 C441.90940437 96.08362613 448.14394768 86.8867546 454.375 77.6875 C455.02900787 76.72195694 455.02900787 76.72195694 455.69622803 75.73690796 C458.79764648 71.15804776 461.89884784 66.57904055 465 62 C468.54151789 56.77073256 472.08314871 51.54154164 475.625 46.3125 C476.05485199 45.67786835 476.48470398 45.04323669 476.92758179 44.38937378 C484.32437222 33.46917402 491.72844688 22.55392799 499.13720703 11.6418457 C499.51816025 11.08066544 499.89911346 10.51948517 500.29161072 9.94129944 C501.3149943 8.43378038 502.33852199 6.92635916 503.36206055 5.41894531 C504.58189044 3.61747347 505.79318783 1.81021826 507 0 C508.90153694 -0.36914349 508.90153694 -0.36914349 511.26467896 -0.36076355 C512.60665344 -0.36694954 512.60665344 -0.36694954 513.97573853 -0.3732605 C515.45172012 -0.35708176 515.45172012 -0.35708176 516.95751953 -0.34057617 C518.50877533 -0.34123329 518.50877533 -0.34123329 520.09136963 -0.34190369 C523.52204025 -0.33980761 526.95222688 -0.31643766 530.3828125 -0.29296875 C532.75649753 -0.28737572 535.13018601 -0.28310424 537.50387573 -0.28010559 C543.76098133 -0.26863382 550.01787906 -0.23914648 556.27490234 -0.20599365 C562.65589587 -0.17534303 569.03692288 -0.16161097 575.41796875 -0.14648438 C587.94540135 -0.11427911 600.47268964 -0.06362867 613 0 C611.65954994 2.72606127 610.24560122 5.2339869 608.5234375 7.73828125 C608.02593994 8.46394287 607.52844238 9.18960449 607.01586914 9.93725586 C606.47438232 10.72108643 605.93289551 11.50491699 605.375 12.3125 C604.80450928 13.14209229 604.23401855 13.97168457 603.64624023 14.82641602 C591.29292194 32.76540912 578.79157377 50.60196588 566.29101562 68.43847656 C559.5107066 78.1141399 552.74373413 87.79880013 546 97.5 C538.12317003 108.83121508 530.21118259 120.13752975 522.29101562 131.43847656 C515.5107066 141.1141399 508.74373413 150.79880013 502 160.5 C494.12317003 171.83121508 486.21118259 183.13752975 478.29101562 194.43847656 C471.5107066 204.1141399 464.74373413 213.79880013 458 223.5 C450.12317003 234.83121508 442.21118259 246.13752975 434.29101562 257.43847656 C427.5107066 267.1141399 420.74373413 276.79880013 414 286.5 C407.25927821 296.19686646 400.4951861 305.87709183 393.71777344 315.54833984 C391.98047369 318.02786857 390.2439862 320.50796395 388.5078125 322.98828125 C387.92797607 323.81618164 387.34813965 324.64408203 386.75073242 325.49707031 C385.59271676 327.15262415 384.43659724 328.80950606 383.2824707 330.46777344 C380.22457244 334.85562575 377.1282636 339.20910438 373.97265625 343.52734375 C373.31845703 344.43291016 372.66425781 345.33847656 371.99023438 346.27148438 C370.73160355 348.01214403 369.46122807 349.74438824 368.17773438 351.46679688 C367.61505859 352.24990234 367.05238281 353.03300781 366.47265625 353.83984375 C365.97000244 354.52425537 365.46734863 355.20866699 364.94946289 355.91381836 C363.68608547 358.6897402 364.08463312 360.13256138 365 363 C366.41932673 365.21931089 367.8532241 367.28201165 369.4375 369.375 C370.36139702 370.63132802 371.28321295 371.88918867 372.203125 373.1484375 C372.67298828 373.79006836 373.14285156 374.43169922 373.62695312 375.09277344 C375.72694451 378.00976004 377.71056713 380.99879862 379.6875 384 C383.80197143 390.223591 387.9804294 396.40112502 392.1875 402.5625 C392.82518311 403.49642578 393.46286621 404.43035156 394.11987305 405.39257812 C395.42786412 407.30758816 396.7360525 409.22246345 398.04443359 411.13720703 C401.19948921 415.75595637 404.34956564 420.37809787 407.5 425 C408.75257384 426.83726026 410.00517803 428.67449983 411.2578125 430.51171875 C411.87688477 431.41970215 412.49595703 432.32768555 413.13378906 433.26318359 C414.98214793 435.97381977 416.83086901 438.68420855 418.6796875 441.39453125 C426.01513334 452.14904083 433.34061413 462.91026571 440.65917969 473.67626953 C447.7625962 484.12446728 454.88021318 494.56295362 462 505 C470.56268915 517.5522275 479.11691196 530.11013395 487.65917969 542.67626953 C494.1497046 552.2229838 500.65190823 561.76170226 507.15722656 571.29833984 C510.89898576 576.78407213 514.63928954 582.27079689 518.37988281 587.75732422 C521.47935395 592.3033764 524.57914403 596.84921034 527.6796875 601.39453125 C535.01513334 612.14904083 542.34061413 622.91026571 549.65917969 633.67626953 C556.1497046 643.2229838 562.65190823 652.76170226 569.15722656 662.29833984 C571.64583596 665.94684959 574.13373807 669.59584133 576.62158203 673.24487305 C577.86989393 675.07580622 579.11826595 676.90669841 580.36669922 678.73754883 C583.5423051 683.39468901 586.71713471 688.0523554 589.890625 692.7109375 C590.5312085 693.65098633 591.17179199 694.59103516 591.83178711 695.55957031 C593.09615435 697.41532734 594.3600014 699.27143891 595.62329102 701.12792969 C598.5249157 705.38823019 601.43796457 709.63934083 604.38671875 713.8671875 C604.90459961 714.61178223 605.42248047 715.35637695 605.95605469 716.12353516 C606.91752396 717.503627 607.88280253 718.88107574 608.85253906 720.25537109 C612 724.77787751 612 724.77787751 612 727 C597.66605605 727.25738411 583.33247213 727.45040722 568.99668884 727.56993389 C562.33947559 727.62730766 555.6842288 727.70509742 549.02783203 727.82983398 C542.60214009 727.94949161 536.17794087 728.01515405 529.7512207 728.04364967 C527.30143734 728.06395146 524.85173439 728.10359934 522.40258789 728.16303062 C503.27382867 728.60868517 503.27382867 728.60868517 497.88993835 724.79969788 C495.77744635 721.95404588 494.39491339 719.24964021 493 716 C491.9957758 714.44862081 490.96021722 712.91693576 489.88989258 711.41040039 C488.88875063 709.89125382 487.89037969 708.37027813 486.89453125 706.84765625 C486.34114075 706.00640198 485.78775024 705.16514771 485.21759033 704.29840088 C483.41347319 701.55468245 481.61302792 698.80857482 479.8125 696.0625 C478.53276201 694.11528703 477.25272699 692.16826925 475.97241211 690.22143555 C473.31178282 686.17510699 470.65242725 682.1279461 467.99414062 678.08007812 C461.69225115 668.48518527 455.37833168 658.89821914 449.0625 649.3125 C448.15124863 647.92914963 448.15124863 647.92914963 447.22158813 646.51785278 C439.08521626 634.16792766 430.91292555 621.84295993 422.69485474 609.54727173 C413.94237208 596.44964567 405.27651045 583.29558973 396.61572266 570.13720703 C388.77994704 558.233757 380.91941582 546.34796829 373 534.5 C363.81826045 520.76351216 354.72087969 506.97238101 345.63787842 493.17044067 C336.46480585 479.23300166 327.2489917 465.32530434 317.96289062 451.46289062 C313.21408111 444.36738824 308.54243005 437.23014296 304 430 C300.17590138 431.27469954 299.61796777 432.67286602 297.4375 436.01953125 C296.73310791 437.09001709 296.02871582 438.16050293 295.30297852 439.26342773 C294.92875763 439.84019257 294.55453674 440.4169574 294.16897583 441.01119995 C292.57312119 443.47028676 290.95936642 445.91743509 289.34657288 448.36543274 C288.50171657 449.64811954 287.65776729 450.93140418 286.81468201 452.21525574 C282.46441402 458.83517014 278.02039816 465.38978859 273.5625 471.9375 C272.76813638 473.10581257 271.97386602 474.27418855 271.1796875 475.44262695 C269.5839773 477.79004123 267.98772754 480.13708727 266.39111328 482.48388672 C262.81826638 487.73644372 259.2526574 492.99391204 255.68649292 498.25100708 C253.70795767 501.16753872 251.72895523 504.08375332 249.75 507 C248.95833109 508.16666515 248.16666443 509.33333181 247.375 510.5 C147.62499996 657.50000006 147.62499996 657.50000006 146.43762207 659.24981689 C145.64554452 660.41709121 144.85347096 661.58436823 144.06140137 662.75164795 C142.08855374 665.65903967 140.11563809 668.56638518 138.14257812 671.47363281 C134.08309293 677.45533571 130.02492056 683.4379239 125.96875 689.421875 C111.74428221 710.40470154 111.74428221 710.40470154 105.375 719.6875 C104.70984375 720.65864746 104.70984375 720.65864746 104.03125 721.64941406 C101.12157939 725.87842061 101.12157939 725.87842061 100 727 C98.63391674 727.09535213 97.26294545 727.1218867 95.89353943 727.12025452 C95.00867859 727.12162918 94.12381775 727.12300385 93.21214294 727.12442017 C92.23391068 727.12082489 91.25567841 727.11722961 90.24780273 727.11352539 C89.2235318 727.11367142 88.19926086 727.11381744 87.14395142 727.1139679 C83.74047771 727.11326828 80.33705796 727.10547363 76.93359375 727.09765625 C74.58089732 727.09579224 72.2282005 727.09436826 69.87550354 727.09336853 C63.66943295 727.08954199 57.4633856 727.07971055 51.25732422 727.06866455 C44.93001622 727.05845334 38.60270448 727.05387154 32.27539062 727.04882812 C19.85025018 727.0380884 7.42512702 727.02101036 -5 727 C0.31812377 716.14668618 8.22406969 706.35125103 15.15625 696.48046875 C19.12174015 690.83249522 23.06228601 685.16735961 27 679.5 C32.55451747 671.50839139 38.12553126 663.5286369 43.7109375 655.55859375 C48.1543154 649.21521942 52.57970045 642.85947311 57 636.5 C62.55467662 628.50850164 68.12553084 620.5286375 73.7109375 612.55859375 C78.1543154 606.21521942 82.57970045 599.85947311 87 593.5 C92.55467662 585.50850164 98.12553084 577.5286375 103.7109375 569.55859375 C108.1543154 563.21521942 112.57970045 556.85947311 117 550.5 C122.55467662 542.50850164 128.12553084 534.5286375 133.7109375 526.55859375 C138.1543154 520.21521942 142.57970045 513.85947311 147 507.5 C152.55467662 499.50850164 158.12553084 491.5286375 163.7109375 483.55859375 C168.1543154 477.21521942 172.57970045 470.85947311 177 464.5 C182.55467662 456.50850164 188.12553084 448.5286375 193.7109375 440.55859375 C198.1543154 434.21521942 202.57970045 427.85947311 207 421.5 C211.421216 415.1392084 215.84688701 408.78169995 220.29223633 402.43774414 C221.42337034 400.82310896 222.55343072 399.20772108 223.68237305 397.59155273 C226.90048228 392.98589031 230.13843731 388.39531046 233.39453125 383.81640625 C234.86728215 381.7318377 236.33994008 379.64720347 237.8125 377.5625 C238.51310547 376.58474609 239.21371094 375.60699219 239.93554688 374.59960938 C240.58201172 373.68115234 241.22847656 372.76269531 241.89453125 371.81640625 C242.47050049 371.00631104 243.04646973 370.19621582 243.63989258 369.36157227 C245.14479429 366.74859178 245.86708179 365.0190585 246 362 C244.80554925 359.40410775 244.80554925 359.40410775 242.87890625 356.90234375 C242.18990234 355.93490234 241.50089844 354.96746094 240.79101562 353.97070312 C240.05560547 352.96974609 239.32019531 351.96878906 238.5625 350.9375 C237.14590062 348.96833563 235.73053763 346.99828123 234.31640625 345.02734375 C233.5999292 344.03500732 232.88345215 343.0426709 232.14526367 342.02026367 C229.33363634 338.06184308 226.64970567 334.02602379 223.97192383 329.97631836 C220.71341808 325.05810076 217.38441638 320.18801225 214.0625 315.3125 C212.94569065 313.6717554 211.82888222 312.03101018 210.71212769 310.39022827 C209.56492859 308.7048604 208.41749128 307.0196549 207.27001953 305.33447266 C203.6775162 300.05801336 200.08902057 294.77882853 196.5 289.5 C195.08595083 287.42056385 193.67188829 285.34113679 192.2578125 283.26171875 C189.39806329 279.05624387 186.53873024 274.85048645 183.6796875 270.64453125 C176.95932648 260.7587828 170.23590825 250.8751631 163.5 241 C154.59690241 227.94763386 145.71599186 214.88019902 136.83398438 201.81347656 C129.39580537 190.87122316 121.95565947 179.93035276 114.5 169 C105.59690241 155.94763386 96.71599186 142.88019902 87.83398438 129.81347656 C80.39580537 118.87122316 72.95565947 107.93035276 65.5 97 C56.59690241 83.94763386 47.71599186 70.88019902 38.83398438 57.81347656 C31.22690781 46.62275914 23.61869035 35.43281526 16 24.25 C15.38423096 23.34588379 14.76846191 22.44176758 14.1340332 21.51025391 C9.94495008 15.36656934 5.71566401 9.2526856 1.44140625 3.16796875 C0 1 0 1 0 0 Z " fill="#FEFEFE" transform="translate(196,135)"/>
</svg>
